<svg width="42" height="42" viewBox="0 0 42 42" fill="none" xmlns="http://www.w3.org/2000/svg">
<path d="M39.8825 13.3049H37.7834V5.5089C38.6705 5.27994 39.3892 4.63112 39.7078 3.77213C40.0264 2.91314 39.9043 1.9526 39.3811 1.20076C38.8579 0.44859 37.9999 0 37.0837 0C36.1675 0 35.3094 0.448558 34.7863 1.20076C34.2631 1.95262 34.1409 2.91314 34.4595 3.77213C34.7782 4.63112 35.4969 5.27988 36.384 5.5089V11.0721C35.5544 9.49526 34.4255 8.09523 33.0605 6.95012C30.2954 4.6811 26.8169 3.46227 23.2407 3.50912H18.6861C15.4085 3.47383 12.2071 4.5015 9.56206 6.43818C7.91461 7.66637 6.56055 9.24537 5.59753 11.0609V5.5089C6.48466 5.27994 7.20339 4.63112 7.52198 3.77213C7.84059 2.91314 7.71845 1.9526 7.19525 1.20076C6.67203 0.44859 5.814 0 4.89784 0C3.98167 0 3.12356 0.448558 2.60043 1.20076C2.07722 1.95262 1.95508 2.91314 2.2737 3.77213C2.59231 4.63112 3.31109 5.27988 4.19815 5.5089V13.3049H2.09905C1.54242 13.3049 1.00824 13.526 0.614735 13.9196C0.221225 14.3132 0 14.8474 0 15.4039V21.7012C0 22.2579 0.221153 22.792 0.614735 23.1856C1.00832 23.5791 1.54249 23.8003 2.09905 23.8003H4.28339C4.64636 26.6981 6.04479 29.3666 8.22041 31.3146C10.3964 33.2624 13.203 34.358 16.1229 34.3995L15.1902 39.5073C15.104 39.9639 15.1733 40.4369 15.3879 40.8495C15.6022 41.2621 15.9493 41.5907 16.3728 41.7825C16.663 41.92 16.9797 41.9915 17.3005 41.9924C17.9312 41.9915 18.5284 41.7094 18.9295 41.2228L24.632 34.4019H25.6116C28.5744 34.4188 31.4404 33.3493 33.6681 31.3957C35.8953 29.4422 37.3297 26.7399 37.6992 23.8003H39.1685C39.0467 31.8352 36.8212 36.1022 31.8258 37.851C31.3785 37.0601 30.5726 36.5378 29.668 36.4523C28.7631 36.367 27.8737 36.729 27.2862 37.4222C26.6984 38.1153 26.4866 39.0521 26.719 39.9304C26.9511 40.8091 27.5983 41.5185 28.4517 41.8309C29.3051 42.143 30.2571 42.0183 31.0015 41.4967C31.7459 40.9753 32.1882 40.1229 32.1863 39.2142C39.3848 36.7484 40.5187 29.7423 40.5827 23.6721C40.9906 23.5278 41.3442 23.2611 41.5944 22.9084C41.8449 22.5554 41.9805 22.1337 41.982 21.7011V15.4038C41.982 14.8472 41.7609 14.313 41.3673 13.9195C40.9737 13.526 40.4395 13.3047 39.883 13.3047L39.8825 13.3049ZM29.387 40.5931C29.0159 40.5931 28.6598 40.4457 28.3974 40.1833C28.135 39.9209 27.9876 39.5648 27.9876 39.1937C27.9876 38.8226 28.135 38.4665 28.3974 38.2041C28.6598 37.9418 29.0159 37.7943 29.387 37.7943C29.7581 37.7943 30.1142 37.9418 30.3766 38.2041C30.639 38.4665 30.7864 38.8226 30.7864 39.1937C30.7864 39.5648 30.639 39.9209 30.3766 40.1833C30.1142 40.4457 29.7581 40.5931 29.387 40.5931ZM35.6843 2.80943C35.6843 2.43834 35.8317 2.08224 36.0941 1.81985C36.3565 1.55747 36.7126 1.41003 37.0837 1.41003C37.4548 1.41003 37.8109 1.55747 38.0732 1.81985C38.3356 2.08224 38.4831 2.43834 38.4831 2.80943C38.4831 3.18052 38.3356 3.53662 38.0732 3.799C37.8109 4.06138 37.4548 4.20882 37.0837 4.20882C36.7126 4.20882 36.3565 4.06138 36.0941 3.799C35.8317 3.53662 35.6843 3.18052 35.6843 2.80943ZM3.49818 2.80943C3.49818 2.43834 3.64562 2.08224 3.908 1.81985C4.17038 1.55747 4.52649 1.41003 4.89757 1.41003C5.26866 1.41003 5.62476 1.55747 5.88715 1.81985C6.14953 2.08224 6.29697 2.43834 6.29697 2.80943C6.29697 3.18052 6.14953 3.53662 5.88715 3.799C5.62476 4.06138 5.26866 4.20882 4.89757 4.20882C4.52649 4.20882 4.17038 4.06138 3.908 3.799C3.64562 3.53662 3.49818 3.18052 3.49818 2.80943ZM1.39908 21.7013V15.404C1.39908 15.0176 1.71239 14.7043 2.09878 14.7043H4.19788V22.401H2.09878C1.71239 22.401 1.39908 22.0877 1.39908 21.7013ZM25.6086 33.0028H24.3045C24.0971 33.0031 23.9006 33.0949 23.7678 33.2542L17.856 40.3253C17.6423 40.5917 17.2709 40.6717 16.9667 40.5171C16.6712 40.3918 16.5041 40.076 16.5672 39.7614L17.6495 33.8287C17.687 33.6244 17.6317 33.4139 17.4986 33.2546C17.3656 33.095 17.1688 33.0028 16.9611 33.0028H16.3726C13.5438 33.0278 10.8206 31.9295 8.80054 29.9491C6.78046 27.9684 5.62847 25.2677 5.59721 22.4389V16.6873C5.66905 13.0548 7.45145 9.66939 10.4055 7.55447C12.8075 5.80178 15.7125 4.87378 18.6859 4.90905H23.2405C26.4863 4.86219 29.6443 5.96363 32.1566 8.01931C34.7896 10.1325 36.3401 13.3121 36.3842 16.6876V22.4392C36.3529 25.2679 35.2009 27.9686 33.1808 29.9494C31.1607 31.9298 28.4376 33.028 25.6088 33.0031L25.6086 33.0028ZM40.5822 21.7013C40.5822 21.8868 40.5084 22.0649 40.3773 22.1961C40.2461 22.3272 40.068 22.401 39.8825 22.401H37.7834V14.7043H39.8825C40.068 14.7043 40.2461 14.778 40.3773 14.9092C40.5084 15.0404 40.5822 15.2184 40.5822 15.404V21.7013Z" fill="#2483C5"/>
<path d="M27.9875 9.10669H13.9936C12.6951 9.10825 11.45 9.62459 10.532 10.5429C9.61364 11.461 9.0973 12.7061 9.0957 14.0046V24.5C9.09726 25.7985 9.61361 27.0437 10.532 27.9617C11.45 28.88 12.6951 29.3963 13.9936 29.3979H27.9875C29.286 29.3964 30.5312 28.88 31.4492 27.9617C32.3675 27.0437 32.8838 25.7985 32.8854 24.5V14.0046C32.8839 12.7061 32.3675 11.461 31.4492 10.5429C30.5312 9.62463 29.286 9.10829 27.9875 9.10669ZM31.486 24.5C31.4848 25.4275 31.1159 26.3168 30.4602 26.9727C29.8043 27.6284 28.915 27.9973 27.9875 27.9985H13.9936C13.0661 27.9973 12.1769 27.6284 11.5209 26.9727C10.8652 26.3168 10.4964 25.4275 10.4951 24.5V14.0046C10.4963 13.0771 10.8653 12.1878 11.5209 11.5319C12.1769 10.8762 13.0661 10.5074 13.9936 10.5061H27.9875C28.915 10.5073 29.8043 10.8762 30.4602 11.5319C31.1159 12.1878 31.4848 13.0771 31.486 14.0046V24.5Z" fill="#2483C5"/>
<path d="M28.6869 12.6052C28.6869 12.4197 28.6132 12.2416 28.482 12.1104C28.3508 11.9792 28.1728 11.9055 27.9872 11.9055H21.6899C21.3035 11.9055 20.9902 12.2188 20.9902 12.6052C20.9902 12.9916 21.3035 13.3049 21.6899 13.3049H27.9872C28.1728 13.3049 28.3508 13.2312 28.482 13.1C28.6132 12.9688 28.6869 12.7908 28.6869 12.6052Z" fill="#2483C5"/>
<path d="M19.5908 12.6052C19.5908 12.9916 19.2775 13.3049 18.8911 13.3049C18.5047 13.3049 18.1914 12.9916 18.1914 12.6052C18.1914 12.2188 18.5047 11.9055 18.8911 11.9055C19.2775 11.9055 19.5908 12.2188 19.5908 12.6052Z" fill="#2483C5"/>
<path d="M26.5879 16.1036C25.8457 16.1036 25.1338 16.3985 24.6087 16.9233C24.0839 17.4484 23.7891 18.1603 23.7891 18.9024C23.7891 19.6446 24.0839 20.3565 24.6087 20.8816C25.1338 21.4063 25.8457 21.7012 26.5879 21.7012C27.33 21.7012 28.0419 21.4063 28.567 20.8816C29.0918 20.3565 29.3866 19.6446 29.3866 18.9024C29.3866 18.1603 29.0918 17.4483 28.567 16.9233C28.0419 16.3985 27.33 16.1036 26.5879 16.1036ZM26.5879 20.3018C26.2168 20.3018 25.8607 20.1544 25.5983 19.892C25.3359 19.6296 25.1885 19.2735 25.1885 18.9024C25.1885 18.5313 25.3359 18.1752 25.5983 17.9129C25.8607 17.6505 26.2168 17.503 26.5879 17.503C26.9589 17.503 27.315 17.6505 27.5774 17.9129C27.8398 18.1752 27.9873 18.5313 27.9873 18.9024C27.9873 19.2735 27.8398 19.6296 27.5774 19.892C27.315 20.1544 26.9589 20.3018 26.5879 20.3018Z" fill="#2483C5"/>
<path d="M15.3925 16.1036C14.6504 16.1036 13.9384 16.3985 13.4134 16.9233C12.8886 17.4484 12.5938 18.1603 12.5938 18.9024C12.5938 19.2888 12.9071 19.6021 13.2934 19.6021C13.6798 19.6021 13.9931 19.2888 13.9931 18.9024C13.9931 18.4023 14.2599 17.9404 14.6928 17.6905C15.1258 17.4406 15.6593 17.4406 16.0922 17.6905C16.5252 17.9404 16.7919 18.4023 16.7919 18.9024C16.7919 19.2888 17.1052 19.6021 17.4916 19.6021C17.878 19.6021 18.1913 19.2888 18.1913 18.9024C18.1913 18.1603 17.8965 17.4483 17.3717 16.9233C16.8466 16.3985 16.1347 16.1036 15.3925 16.1036Z" fill="#2483C5"/>
</svg>
